Coordinates
version=1
nRows=11
nColumns=40
inDegrees=yes

Units are S.I. units (second, meters, Newtons, ...)
Angles are in degrees.

endheader
time	pelvis_tilt	pelvis_list	pelvis_rotation	pelvis_tx	pelvis_ty	pelvis_tz	hip_flexion_r	hip_adduction_r	hip_rotation_r	knee_angle_r	knee_angle_r_beta	ankle_angle_r	subtalar_angle_r	mtp_angle_r	hip_flexion_l	hip_adduction_l	hip_rotation_l	knee_angle_l	knee_angle_l_beta	ankle_angle_l	subtalar_angle_l	mtp_angle_l	lumbar_extension	lumbar_bending	lumbar_rotation	arm_flex_r	arm_add_r	arm_rot_r	elbow_flex_r	pro_sup_r	wrist_flex_r	wrist_dev_r	arm_flex_l	arm_add_l	arm_rot_l	elbow_flex_l	pro_sup_l	wrist_flex_l	wrist_dev_l
     37.94500000	     -3.80481483	     -3.30107676	     -2.96342283	      0.92924635	      0.91281854	      0.39052784	     19.48054743	     -7.17071724	     -1.79638849	     60.43524878	     60.43524878	      4.07861440	    -17.16380492	     -3.54424300	     20.32199051	     -0.48381799	     -0.85938907	     33.76604487	     33.76604487	     19.67216325	    -17.44290432	      8.18206641	     -9.53346336	      6.72264055	      3.28800208	     10.56500859	    -12.46975896	    -15.51637259	     22.95224460	     46.92038016	      0.00000000	      0.00000000	     19.75647668	    -15.32272142	     12.54556166	     42.86752196	     45.66498672	      0.00000000	      0.00000000
     37.96885714	     -3.69269110	     -3.39485387	     -3.68849736	      0.92796618	      0.91227437	      0.39019731	     21.67819951	     -6.68545158	     -1.25514205	     62.56530538	     62.56530538	      5.89849851	    -17.48470506	      3.63381638	     20.04764139	     -0.62855218	     -1.22544332	     34.14603043	     34.14603043	     20.47554343	    -17.62732680	      9.12643643	     -9.93446699	      6.91499172	      3.28112701	      6.90825916	    -12.02680675	    -15.10515660	     22.65759696	     46.87477061	      0.00000000	      0.00000000	     21.68817499	    -15.94911585	     10.87289494	     45.19436758	     45.89625277	      0.00000000	      0.00000000
     37.99271429	     -3.68023218	     -3.42031579	     -4.48566447	      0.92660621	      0.91230300	      0.39032474	     23.66004388	     -6.31191027	     -0.90177419	     63.43895128	     63.43895128	      6.65607908	    -18.01061676	      5.95432529	     19.66708867	     -0.76719197	     -1.75322573	     34.09842634	     34.09842634	     20.85455320	    -17.80464096	      9.43735488	    -10.18568757	      7.01479527	      3.11273487	      3.57185918	    -11.58173227	    -14.13646617	     22.33905183	     46.78973796	      0.00000000	      0.00000000	     23.64163864	    -16.66198695	      9.27135872	     47.01971005	     46.10982902	      0.00000000	      0.00000000
     38.01657143	     -3.74099763	     -3.43939264	     -5.36935297	      0.92516839	      0.91300682	      0.39098504	     25.42628153	     -5.92920365	     -0.65760684	     63.17157765	     63.17157765	      7.11824052	    -18.34019189	      5.98177251	     19.14820227	     -0.95347214	     -2.39264957	     33.64787095	     33.64787095	     20.99372058	    -17.93516467	      9.56516108	    -10.33638444	      7.07491299	      3.08151407	      0.67267777	    -11.11353854	    -13.94571152	     21.38057310	     46.78857540	      0.00000000	      0.00000000	     25.77953633	    -17.51839589	      8.47113892	     48.47760485	     46.22302681	      0.00000000	      0.00000000
     38.04042857	     -3.91332450	     -3.58815664	     -6.22121818	      0.92360895	      0.91424398	      0.39219209	     26.95856573	     -5.35427814	     -0.58003230	     61.81503337	     61.81503337	      7.94363879	    -18.24381572	      5.79837469	     18.66401102	     -1.33205115	     -3.03010998	     33.04393403	     33.04393403	     21.02940074	    -17.94400710	      9.70438140	    -10.32155288	      7.30810509	      2.39775577	     -1.60499301	    -10.62051254	    -13.92404742	     20.69527096	     46.79297369	      0.00000000	      0.00000000	     27.72725706	    -19.00659542	      7.81700356	     49.23170213	     46.30735776	      0.00000000	      0.00000000
     38.06428571	     -4.04880987	     -3.67457296	     -7.22569754	      0.92200598	      0.91619430	      0.39391720	     28.09654052	     -4.69010355	     -0.29771081	     59.32404553	     59.32404553	      8.48385932	    -18.12065676	      4.77466636	     17.89660430	     -1.67309164	     -3.81963771	     32.01589445	     32.01589445	     20.88887799	    -17.92959902	      9.79095623	    -10.58143157	      7.37197292	      3.18934254	     -4.74803102	    -10.24886540	    -13.62208680	     20.86543993	     46.72417492	      0.00000000	      0.00000000	     29.74178048	    -19.27466504	      6.16567182	     52.17673161	     46.50913608	      0.00000000	      0.00000000
     38.08814286	     -4.29212128	     -3.85408714	     -8.20267553	      0.92039746	      0.91826739	      0.39605787	     28.76313286	     -4.08247196	     -0.38413093	     55.48008528	     55.48008528	      7.34572455	    -18.00976947	     -1.93106477	     17.08566014	     -2.15246917	     -4.68115817	     30.69557512	     30.69557512	     20.40915457	    -17.92760078	      9.22339192	    -10.60883868	      7.55224495	      2.70399376	     -7.93310221	    -10.38478828	     -9.27714579	     23.74702606	     46.22117257	      0.00000000	      0.00000000	     30.89949659	    -20.04991043	      2.49743535	     55.02125371	     46.87746671	      0.00000000	      0.00000000
     38.11200000	     -4.55228556	     -4.09601492	     -9.16207648	      0.91860198	      0.92052985	      0.39874368	     29.17892169	     -3.21615428	     -0.28247421	     51.13054174	     51.13054174	      7.98058997	    -16.73580851	     -2.66076173	     16.31470279	     -2.71367755	     -5.49193488	     29.45964611	     29.45964611	     20.19463429	    -17.76896494	      9.40234199	    -10.64835692	      7.76457455	      2.79441470	     -9.84819923	    -10.04411576	     -9.09126174	     23.69465915	     46.19351902	      0.00000000	      0.00000000	     32.90992735	    -21.07249930	      1.70730704	     56.69044269	     46.98018819	      0.00000000	      0.00000000
     38.13585714	     -4.81764399	     -4.25292886	    -10.10528754	      0.91692629	      0.92264015	      0.40165748	     29.15825353	     -2.58865456	     -0.39643923	     46.04034973	     46.04034973	      8.23654810	    -14.38225064	     -3.99893531	     15.53094703	     -3.18394326	     -6.36115904	     28.19968707	     28.19968707	     19.89757861	    -17.58730892	      9.34993037	    -10.65779727	      7.87522911	      2.89460695	    -11.65293603	     -9.75180352	     -8.91591225	     24.22053289	     46.14125321	      0.00000000	      0.00000000	     34.80804691	    -21.98750869	      0.63534649	     58.67104865	     47.10792689	      0.00000000	      0.00000000
     38.15971429	     -5.15286972	     -4.41973763	    -10.94820545	      0.91532378	      0.92438771	      0.40478278	     28.80501200	     -1.99107437	     -0.68433752	     40.47888535	     40.47888535	      8.25040590	    -11.30212816	     -4.58543264	     14.87331786	     -3.66627619	     -7.13616095	     27.04744677	     27.04744677	     19.62782357	    -17.38071391	      9.25898746	    -10.52546159	      8.03482381	      2.85153455	    -13.09659761	     -9.49890380	     -8.78700186	     24.75940755	     46.09447072	      0.00000000	      0.00000000	     36.59879816	    -22.90145673	     -0.32330520	     60.29446414	     47.21885171	      0.00000000	      0.00000000
     38.18357143	     -5.42135380	     -4.41788106	    -11.73709381	      0.91399106	      0.92554840	      0.40811466	     28.15297006	     -1.68489974	     -1.23406270	     34.83719061	     34.83719061	      7.60715935	     -7.50157777	     -6.10124841	     14.13970746	     -3.96067306	     -7.99341979	     25.83856223	     25.83856223	     18.85899734	    -17.31250192	      7.71843900	    -10.47866911	      7.98404474	      2.61345823	    -15.19922625	     -9.47274606	     -7.75318655	     28.38696013	     45.84838810	      0.00000000	      0.00000000	     37.65002568	    -23.62074065	     -2.99718810	     63.63166275	     47.47912197	      0.00000000	      0.00000000
